<?xml version="1.0"?>
<svg xmlns:rdf="http://www.w3.org/1999/02/22-rdf-syntax-ns#" xmlns="http://www.w3.org/2000/svg" xmlns:cc="http://creativecommons.org/ns#" xmlns:dc="http://purl.org/dc/elements/1.1/" xmlns:svg="http://www.w3.org/2000/svg" id="svg4772" viewBox="0 0 317.5 317.5" version="1.0">
  <g id="layer1" transform="translate(-166.29 -132.56)">
    <path id="path3381" d="m153.75-6.5c-87.557 0-158.75 71.193-158.75 158.75 0 87.56 71.193 158.75 158.75 158.75 87.56 0 158.75-71.19 158.75-158.75 0-87.557-71.19-158.75-158.75-158.75zm0 14c79.98 0 144.75 64.775 144.75 144.75 0 54.58-30.2 102.06-74.78 126.72-7.29-21.14-37.94-131.3-41.94-144.63 4.7-4.7 10.74-12.67 13.1-18.68 15.96 6.49 43 4.1 52.4-13.85-13.15-11.071-37.11-14.673-49.81-5.529-1.7-6.247-2.67-9.874-8.09-14.531l11.31-13.594c0.91 0.209 1.87 0.313 2.84 0.313 7 0 12.69-5.684 12.69-12.688 0-7.003-5.69-12.687-12.69-12.687s-12.69 5.684-12.69 12.687c0 1.912 0.43 3.718 1.19 5.344l-11.56 14.313c-3.08-2.157-6.27-4.029-9.94-4.876l4.63-19c5.84-1.135 10.25-6.297 10.25-12.468 0-7.004-5.69-12.688-12.69-12.688s-12.69 5.684-12.69 12.688c0 3.637 1.55 6.904 4 9.218l-4.53 19.594c-6.78-1.152-9.76 0.143-15.94 2.219-5.61-16.497-26.69-36.288-46.654-31.094 0.633 17.033 16.584 40.401 31.754 43.844-10.46 19.575-7.61 39.305-14.6 61.215-9.84 25.19-42.544 47.8-48.998 64.32-7.381 18.89 16.133 42.79 32.344 49.06 16.214 6.27 47.404 2.89 54.784-16 7.1-18.2 0.85-52.03 10.69-77.22 0.33-0.85 0.68-1.68 1.03-2.5 4.64 18.94 7.05 29.53 22.21 99.37 5.02-0.97 6.17-0.53 0 0l6.88 30.47c-12.48 3.51-25.64 5.41-39.25 5.41-79.975 0-144.75-64.77-144.75-144.75 0-79.975 64.775-144.75 144.75-144.75z" fill="#fff500" transform="translate(171.29 139.06)"/>
    <path id="path2345" d="m377.42 419.75c-0.69-2.58-4.22-6.95-5.1-8.75-3.71-5.2-7.33-12.41-15.25-11.47l7 31.18c7.75-2.37 15.54-2.92 13.35-10.96zm-97.97-234.22c-0.63 0.01-1.22 0.07-1.78 0.19 0.35 10.2 17.87 29.41 26.34 30.9 1.78-1.85 3.53-3.39 5.41-4.87-5.12-14.02-20.6-26.29-29.97-26.22zm107.75 49.75c-6.92 0.29-13.86 2.18-18.25 5.19-0.06 1.7-0.63 6.85-0.69 8.87 9.07 4.46 35.09 3.73 40.19-6.43-3.48-5.77-12.36-8-21.25-7.63zm-80.47 13.28c-2.25 0.16-4.07 1.23-5 3.44-2.02 4.79-0.71 9.43 3.59 11.22 4.15 1.72 8.29 1.06 10.13-3.69 1.85-4.53-0.54-8.83-4.28-10.31-1.58-0.51-3.09-0.75-4.44-0.66zm26.25 11.69c-2.2 0.04-4.12 1.1-5.5 3.44-2.73 4.62-0.63 9.07 2.22 10.75 2.79 1.64 8.62 1.75 10.84-2.6 2.46-4.05 0.21-8.85-3.37-10.59-1.46-0.67-2.87-1.02-4.19-1zm25.69 60.53c-1.02 0.03-2 0.45-2.94 1.31-3.78 3.78 1.16 17.49 2.69 23.25 2.04 7.75 9.42 24.38 22.22 24.38-1.76-6.04-10.89-37.62-12.13-41.66-3.46-4.13-6.8-7.38-9.84-7.28zm-106.44 37.72c-2.87-0.02-5.34 1.22-6.25 3.41-1.33 3.18 1.15 7.2 5.5 8.97 4.35 1.76 8.95 0.61 10.28-2.57s-1.15-7.2-5.5-8.97c-1.36-0.55-2.73-0.83-4.03-0.84zm43.31 18.09c-2.86-0.02-5.34 1.22-6.25 3.41-1.33 3.18 1.12 7.2 5.47 8.97s8.99 0.62 10.31-2.56c1.33-3.18-1.15-7.2-5.5-8.97-1.36-0.56-2.73-0.84-4.03-0.85z" fill="#4b1b00"/>
  </g>
  <metadata>
    <rdf:RDF>
      <cc:Work>
        <dc:format>image/svg+xml</dc:format>
        <dc:type rdf:resource="http://purl.org/dc/dcmitype/StillImage"/>
        <cc:license rdf:resource="http://creativecommons.org/licenses/publicdomain/"/>
        <dc:publisher>
          <cc:Agent rdf:about="http://openclipart.org/">
            <dc:title>Openclipart</dc:title>
          </cc:Agent>
        </dc:publisher>
        <dc:title>giraffe head</dc:title>
        <dc:date>2009-04-22T12:51:09</dc:date>
        <dc:description>A funny giraffe head as a logo.&#xD;\n&#xD;\nIt's a logo for "o&#xF9; est la girafe?".&#xD;\n(Where is the giraffe?)</dc:description>
        <dc:source>http://openclipart.org/detail/25254/giraffe-head-by-martouf</dc:source>
        <dc:creator>
          <cc:Agent>
            <dc:title>Martouf</dc:title>
          </cc:Agent>
        </dc:creator>
        <dc:subject>
          <rdf:Bag>
            <rdf:li>animal</rdf:li>
            <rdf:li>cartoon</rdf:li>
            <rdf:li>clip art</rdf:li>
            <rdf:li>clipart</rdf:li>
            <rdf:li>color</rdf:li>
            <rdf:li>funny</rdf:li>
            <rdf:li>girafe</rdf:li>
            <rdf:li>giraffe</rdf:li>
            <rdf:li>image</rdf:li>
            <rdf:li>logo</rdf:li>
            <rdf:li>mammal</rdf:li>
            <rdf:li>media</rdf:li>
            <rdf:li>public domain</rdf:li>
            <rdf:li>svg</rdf:li>
          </rdf:Bag>
        </dc:subject>
      </cc:Work>
      <cc:License rdf:about="http://creativecommons.org/licenses/publicdomain/">
        <cc:permits rdf:resource="http://creativecommons.org/ns#Reproduction"/>
        <cc:permits rdf:resource="http://creativecommons.org/ns#Distribution"/>
        <cc:permits rdf:resource="http://creativecommons.org/ns#DerivativeWorks"/>
      </cc:License>
    </rdf:RDF>
  </metadata>
</svg>
